<?xml version="1.0" encoding="UTF-8" standalone="no"?>
<!-- Created with Inkscape (http://www.inkscape.org/) -->

<svg
   xmlns:dc="http://purl.org/dc/elements/1.1/"
   xmlns:cc="http://creativecommons.org/ns#"
   xmlns:rdf="http://www.w3.org/1999/02/22-rdf-syntax-ns#"
   xmlns:svg="http://www.w3.org/2000/svg"
   xmlns="http://www.w3.org/2000/svg"
   xmlns:sodipodi="http://sodipodi.sourceforge.net/DTD/sodipodi-0.dtd"
   xmlns:inkscape="http://www.inkscape.org/namespaces/inkscape"
   width="212.089mm"
   height="237.04184mm"
   viewBox="0 0 751.49647 839.91203"
   id="svg4001"
   version="1.1"
   inkscape:version="0.91 r13725"
   sodipodi:docname="fig-07-04.svg">
  <defs
     id="defs4003" />
  <sodipodi:namedview
     id="base"
     pagecolor="#ffffff"
     bordercolor="#666666"
     borderopacity="1.0"
     inkscape:pageopacity="0.0"
     inkscape:pageshadow="2"
     inkscape:zoom="0.35"
     inkscape:cx="859.30038"
     inkscape:cy="643.70577"
     inkscape:document-units="px"
     inkscape:current-layer="layer1"
     showgrid="false"
     inkscape:window-width="1440"
     inkscape:window-height="830"
     inkscape:window-x="0"
     inkscape:window-y="27"
     inkscape:window-maximized="1"
     fit-margin-top="0"
     fit-margin-left="0"
     fit-margin-right="0"
     fit-margin-bottom="0">
    <inkscape:grid
       type="xygrid"
       id="grid4015"
       originx="-0.010176608"
       originy="4.5116956" />
  </sodipodi:namedview>
  <metadata
     id="metadata4006">
    <rdf:RDF>
      <cc:Work
         rdf:about="">
        <dc:format>image/svg+xml</dc:format>
        <dc:type
           rdf:resource="http://purl.org/dc/dcmitype/StillImage" />
        <dc:title></dc:title>
      </cc:Work>
    </rdf:RDF>
  </metadata>
  <g
     inkscape:label="Layer 1"
     inkscape:groupmode="layer"
     id="layer1"
     transform="translate(-0.01017661,-216.96188)">
    <path
       style="fill:#000000"
       d="m 347.08946,1055.7499 c -1.40479,-1.1222 -1.42142,-1.5277 -0.27528,-6.6911 0.58139,-2.6194 1.26287,-33.0453 0.81642,-36.4515 -0.20267,-1.5459 -0.17735,-3.6634 0.0563,-4.7057 0.63489,-2.8328 0.0179,-3.8797 -3.37161,-5.7209 -1.69297,-0.9196 -3.93277,-2.141 -4.97727,-2.71428 -5.10011,-2.79902 -7.04912,-6.04614 -5.2475,-8.74272 0.61219,-0.91636 0.92703,-2.82481 0.9105,-5.51874 -0.0203,-3.30628 0.28021,-4.64523 1.52445,-6.7923 1.25602,-2.16745 1.46109,-3.09768 1.08215,-4.90852 -0.25715,-1.22888 -0.73746,-2.58116 -1.06728,-3.00509 -0.32987,-0.424 -1.62126,-3.31116 -2.86975,-6.416 -1.24842,-3.10484 -2.61226,-6.07123 -3.03064,-6.59196 -0.41844,-0.52075 -1.41384,-2.21918 -2.21207,-3.77431 -1.38545,-2.69913 -2.06386,-3.78627 -6.87402,-11.01494 -1.15252,-1.73205 -4.06719,-6.12501 -6.47694,-9.76214 -2.40981,-3.63714 -5.28078,-7.88917 -6.38007,-9.44897 -1.09922,-1.55981 -3.27362,-5.09978 -4.83192,-7.86661 -1.55835,-2.76683 -3.46104,-5.74159 -4.22811,-6.61058 -2.06773,-2.34242 -14.3093,-20.91016 -14.29724,-21.68582 0.004,-0.24285 -0.3377,-0.83084 -0.75884,-1.30668 -1.44374,-1.63117 -3.60654,-5.03869 -5.98902,-9.4356 -1.31136,-2.42017 -2.62615,-4.8248 -2.9217,-5.34364 -0.29562,-0.51883 -1.1754,-2.3094 -1.95508,-3.97905 -0.77968,-1.66965 -2.03781,-3.73725 -2.79585,-4.59463 -0.75802,-0.85744 -1.37426,-1.81397 -1.36942,-2.12574 0.005,-0.31177 -1.22902,-2.13571 -2.74192,-4.05331 -1.51291,-1.91753 -2.74778,-3.70073 -2.74415,-3.96265 0.004,-0.26186 -1.12788,-2.16599 -2.51445,-4.23135 -1.38657,-2.06529 -3.38473,-5.46228 -4.44036,-7.54885 -3.93727,-7.78201 -5.27423,-10.11917 -6.66953,-11.65902 -1.36938,-1.51114 -5.93409,-9.40906 -10.59421,-18.33021 -2.03068,-3.88742 -10.12061,-16.82289 -10.96594,-17.53415 -0.20759,-0.17464 -0.68906,-1.0592 -1.06991,-1.96569 -0.38091,-0.90649 -1.50194,-2.60688 -2.49125,-3.77864 -0.98932,-1.17176 -2.27468,-3.11961 -2.85639,-4.32855 -0.58178,-1.20893 -2.31154,-4.181 -3.844,-6.6046 -5.1981,-8.2208 -5.59276,-8.88005 -5.58577,-9.32985 0.008,-0.49984 -9.62897,-15.5693 -11.54332,-18.05082 l -1.21669,-1.57721 0.21033,2.49654 c 0.11566,1.3731 0.92674,4.47114 1.80233,6.88453 3.374,9.29989 3.78863,10.75961 4.00451,14.09785 0.12276,1.89867 0.93602,5.01326 1.8133,6.94485 1.8649,4.106 1.95726,5.44233 0.45252,6.54814 -3.31188,2.43382 -5.96866,-0.65701 -6.89346,-8.01976 -0.61309,-4.88083 -1.198,-7.22332 -2.95531,-11.83521 -2.69714,-7.07846 -4.07715,-11.27384 -4.95079,-15.05115 -1.22256,-5.28587 -4.73684,-16.27582 -5.73249,-17.92664 -0.99971,-1.65768 -0.30241,-5.17794 1.45413,-7.34098 2.10962,-2.5978 4.03129,-1.90253 7.11705,2.57512 1.43291,2.07923 2.61147,4.29762 2.61904,4.92978 0.008,0.63216 0.52389,1.29131 1.14738,1.46475 0.62343,0.17343 1.63054,1.21464 2.23802,2.31389 0.60742,1.0992 2.97016,3.99097 5.25055,6.4262 8.40842,8.97954 10.99819,11.90658 10.99018,12.42144 -0.004,0.29002 0.28407,0.53187 0.64127,0.53743 0.72095,0.0112 1.99945,1.00096 3.55884,2.75504 0.56593,0.63661 2.12419,1.74515 3.46282,2.46352 1.33864,0.71837 2.80315,1.68696 3.25443,2.15255 0.45128,0.46553 2.05948,1.89424 3.57381,3.17496 3.14807,2.66246 3.47511,4.39139 1.28169,6.77515 l -1.42658,1.55039 -2.7223,-1.32959 c -1.49726,-0.73125 -3.6899,-2.29901 -4.87256,-3.48381 -1.83122,-1.83473 -7.51358,-5.66385 -7.52282,-5.06941 -0.0117,0.75509 4.29811,7.88567 4.77066,7.89302 0.22378,0.004 1.08696,1.33833 1.91809,2.96634 0.8312,1.628 2.27626,3.82429 3.21133,4.88064 0.93508,1.05635 2.398,3.33395 3.25084,5.06134 0.8529,1.72739 1.87118,3.42617 2.26293,3.77509 0.3917,0.34892 2.08038,2.83953 3.75261,5.53463 1.67223,2.69518 3.91222,6.02561 4.97772,7.40101 1.0655,1.3754 2.11321,3.36562 2.32822,4.42268 0.34425,1.69268 2.83064,6.10922 6.42066,11.40502 0.6364,0.93876 1.15105,2.09542 1.14367,2.57027 -0.007,0.47492 0.56966,1.40684 1.28238,2.07097 0.71267,0.66419 2.42436,3.3265 3.80377,5.91639 1.37935,2.58984 2.83174,5.27711 3.22753,5.97172 0.39573,0.69454 1.58083,3.02934 2.63359,5.18835 1.05269,2.15903 2.16516,3.92941 2.47207,3.93418 0.30691,0.005 0.55394,0.27309 0.54891,0.5962 -0.005,0.32311 1.50734,2.80094 3.3608,5.50629 1.85346,2.70534 3.8402,5.71856 4.41497,6.69614 0.57477,0.97751 2.59182,4.27861 4.48232,7.33571 1.8905,3.0571 3.6314,6.21852 3.86874,7.02549 0.23729,0.80689 1.32729,2.88353 2.42223,4.61468 1.09494,1.73115 2.43054,4.13611 2.96801,5.34436 1.5276,3.43423 2.56684,5.13915 4.26128,6.99132 0.86235,0.94258 1.56322,2.01699 1.55746,2.38753 -0.006,0.37059 0.88151,1.9357 1.97172,3.47803 4.79855,6.78875 6.01792,8.56721 10.93692,15.95203 1.44248,2.16559 3.14083,4.57618 3.77407,5.35689 0.63325,0.7807 1.78533,2.89359 2.56016,4.69537 0.77477,1.80172 2.40275,4.35147 3.61767,5.66611 1.21492,1.31458 2.62529,3.21239 3.13407,4.21736 0.50883,1.00496 2.27303,3.59835 3.92041,5.76306 1.64744,2.16472 3.53628,5.21208 4.1975,6.77192 0.66121,1.55985 2.16253,4.02255 3.33626,5.47269 1.17373,1.45007 2.13,2.89926 2.12501,3.22032 -0.005,0.32105 1.2236,2.4845 2.7302,4.80752 1.5066,2.3231 2.73424,4.54817 2.72807,4.9447 -0.006,0.39652 0.96829,2.86898 2.16539,5.49437 1.54183,3.38123 2.50925,4.7786 3.317,4.79116 0.62722,0.01 1.31806,-0.26 1.53521,-0.59945 0.21714,-0.33945 1.07935,-0.60655 1.91596,-0.59354 1.62734,0.0253 1.61807,0.0601 1.9898,-7.4489 0.0763,-1.54152 0.46753,-9.10877 0.8694,-16.8161 1.11975,-21.47626 1.16407,-41.01962 0.1004,-44.27717 -0.82645,-2.53093 -0.93997,-37.01254 -0.19388,-58.88362 0.22423,-6.57302 -0.0188,-15.48889 -0.94443,-34.65676 l -0.25835,-5.35017 2.5158,-0.94336 c 3.28804,-1.23293 3.74285,-0.64573 4.086,5.27527 0.14657,2.52841 0.50467,6.12498 0.79578,7.9923 0.70562,4.52566 0.57684,10.47574 -0.23723,10.96155 -0.4131,0.24652 -0.53658,1.92676 -0.33434,4.55065 0.49142,6.37546 -0.0799,58.67079 -0.66193,60.58717 -0.36368,1.19773 -0.24272,1.96866 0.41561,2.64778 1.05911,1.09262 1.83936,12.39331 1.43081,20.72311 -0.13448,2.74051 0.0174,6.44278 0.3376,8.22727 0.41902,2.33585 0.37282,3.73174 -0.16512,4.98398 -0.47288,1.10098 -0.93979,7.79963 -1.27203,18.24928 -0.28864,9.08039 -0.72673,18.06808 -0.97357,19.97266 -0.51846,4.00082 -0.0199,4.73081 3.75203,5.49192 2.53065,0.5107 9.45351,4.55471 9.46838,5.53106 0.005,0.31591 0.40246,1.02332 0.88361,1.57203 0.97853,1.11593 1.59067,8.03376 0.75503,8.53245 -0.29502,0.17605 -0.55245,1.21486 -0.57207,2.30848 -0.017,1.09372 -0.97274,3.76026 -2.11791,5.92582 -1.68326,3.18306 -2.50234,4.08006 -4.27539,4.68223 -1.20626,0.40966 -3.46585,1.4159 -5.02132,2.2361 l -2.82812,1.4913 -0.22641,14.5648 c -0.15621,10.0482 -0.003,15.0121 0.49334,16.0074 0.39587,0.7934 0.50097,1.4392 0.23356,1.4351 -1.60092,-0.025 -2.73215,7.1229 -1.35256,8.5461 0.52704,0.5437 0.49569,1.2012 -0.12578,2.638 -0.70468,1.6291 -0.6764,2.2638 0.19027,4.2684 0.77569,1.7941 0.86237,2.7456 0.36408,3.9973 -1.17172,2.9433 -4.83238,3.811 -7.40558,1.7555 z m -42.5371,-134.60913 c -0.22496,-0.23201 -0.4045,-0.71164 -0.39899,-1.06584 0.006,-0.39048 0.29576,-0.34914 0.73594,0.10494 0.39932,0.41193 0.57885,0.89156 0.399,1.06584 -0.17986,0.17435 -0.51104,0.12713 -0.73595,-0.10494 z m -1.3332,-2.7632 c -0.22028,-0.36906 -0.26472,-0.80259 -0.0988,-0.96345 0.16587,-0.16079 0.46096,0.14299 0.6557,0.67503 0.40432,1.10463 0.0423,1.29217 -0.55686,0.28842 z M 151.36675,808.47262 c -1.82773,-2.39939 -2.172,-5.47845 -0.95598,-8.54915 0.56763,-1.43342 1.36241,-4.05533 1.76625,-5.82651 0.40377,-1.77119 1.14059,-3.54716 1.63747,-3.94659 0.51293,-0.41245 0.92472,-1.83781 0.95285,-3.29832 0.0562,-2.93701 0.42101,-3.64248 2.40013,-4.64575 0.86186,-0.43688 1.42261,-1.29583 1.43668,-2.2006 0.0127,-0.81629 0.32944,-1.58098 0.70383,-1.69933 0.67007,-0.21185 2.04665,-3.38658 4.64555,-10.71395 0.72562,-2.04567 1.56675,-4.13629 1.86919,-4.64583 1.06631,-1.79641 1.74391,-3.41953 2.13289,-5.10923 0.34866,-1.51441 0.67311,-1.70366 2.86218,-1.66963 2.15329,0.0335 2.51879,0.25108 2.85913,1.70223 0.22354,0.95316 -0.0103,2.71209 -0.54803,4.11791 -0.79507,2.07962 -0.82574,3.13411 -0.20097,6.90974 0.40552,2.45065 1.12538,6.84589 1.59969,9.76729 0.47431,2.92138 0.85655,7.83597 0.84929,10.92128 -0.007,3.08532 0.22729,7.33982 0.52104,9.45444 0.7,5.03883 -0.0159,6.44806 -3.25009,6.39778 -1.29033,-0.0201 -2.67739,-0.37821 -3.08229,-0.7959 -0.48066,-0.49584 -0.70027,-3.06895 -0.63273,-7.41337 0.12056,-7.75558 -0.32198,-8.62308 -3.83764,-7.52316 -1.17882,0.36888 -2.38537,0.60039 -2.68123,0.51444 -0.29586,-0.0859 -1.13296,0.0373 -1.86017,0.2729 -1.97736,0.64163 -5.05265,9.93726 -4.63455,14.00873 0.51474,5.01195 -2.05318,7.25163 -4.55249,3.97058 z m 16.42816,-25.4665 c 0.68293,-0.41829 0.7005,-1.19187 0.0988,-4.35216 -0.4024,-2.11395 -0.94742,-3.84684 -1.21102,-3.85093 -0.83804,-0.013 -3.91755,6.67562 -3.54379,7.69694 0.38494,1.05166 3.2559,1.36376 4.65605,0.50615 z m 489.42836,19.38086 c -7.07364,-0.89054 -11.03404,-2.32703 -13.83783,-5.01922 -1.02056,-0.97989 -2.53342,-2.26806 -3.36209,-2.86256 -0.8286,-0.5945 -2.54495,-2.6994 -3.81406,-4.67747 -1.26918,-1.97808 -2.74652,-4.06523 -3.28307,-4.63817 -2.72413,-2.90893 -7.96113,-12.78362 -7.92747,-14.9477 0.006,-0.34199 -0.56896,-1.98682 -1.27609,-3.65516 -2.39353,-5.64658 -0.41409,-18.16672 3.53117,-22.33467 0.63964,-0.67571 2.08619,-2.89717 3.21463,-4.93658 2.31872,-4.19043 3.68225,-5.86429 4.76339,-5.84748 0.40785,0.006 1.25783,-0.54144 1.88887,-1.21728 0.63103,-0.67584 1.39027,-1.22502 1.68724,-1.22041 1.09592,0.017 5.55005,-3.22411 5.56283,-4.04794 0.01,-0.65782 -1.27397,-0.87194 -5.63624,-0.93975 -3.10725,-0.0483 -6.16825,0.17955 -6.80228,0.50628 -1.87721,0.96738 -26.50819,1.03165 -31.52207,0.0823 -2.38062,-0.45077 -5.03073,-0.75052 -5.88911,-0.66606 -1.71469,0.16875 -13.28271,0.0739 -18.6972,-0.15322 -1.88431,-0.0792 -3.98719,-0.13186 -4.67307,-0.1169 -0.68588,0.0143 -4.75187,-0.0608 -9.03553,-0.16726 -4.28367,-0.10649 -17.1832,-0.31076 -28.66565,-0.45311 -22.97529,-0.28523 -24.81007,-0.31444 -26.17293,-0.41684 -0.51363,-0.0385 -4.29961,-0.0831 -8.41327,-0.0984 -23.23761,-0.0877 -21.52827,0.0156 -22.30577,-1.34911 -1.28306,-2.25225 -2.16631,-5.34704 -1.79198,-6.27894 0.20133,-0.50127 0.88588,-0.90332 1.5212,-0.89344 1.14681,0.0178 1.78451,-0.4898 3.31317,-2.63725 0.73238,-1.02881 2.38501,-1.11856 20.69553,-1.12413 10.94473,-0.003 20.12374,-0.13988 20.39779,-0.30336 0.274,-0.16354 0.49386,-0.0204 0.4886,0.31808 -0.006,0.38517 2.61424,0.55119 7.00545,0.44387 3.85825,-0.0943 7.43587,-0.17973 7.95026,-0.18982 2.7094,-0.0529 17.52696,0.93674 17.93522,1.1979 0.26243,0.16789 2.99225,0.21244 6.06626,0.10054 10.5326,-0.38865 37.99817,-0.0761 42.06986,0.47878 2.23852,0.30507 5.46317,0.37128 7.16588,0.14693 1.70272,-0.2241 4.47784,-0.11813 6.16696,0.23549 2.296,0.48074 3.13766,0.45331 3.3347,-0.1086 0.1729,-0.49285 0.50777,-0.54269 0.97269,-0.1447 1.38393,1.18457 23.60306,1.16352 49.64986,-0.0469 2.91609,-0.13549 9.6432,0.1711 14.94906,0.68162 10.6581,1.02531 12.90545,1.08387 16.35137,0.42585 3.78608,-0.72291 5.14226,-0.0411 5.97728,3.00494 0.40337,1.4712 1.12047,3.47497 1.59364,4.4529 1.22255,2.52681 1.06045,3.39226 -0.81259,4.33677 -1.37905,0.69544 -2.21314,0.68826 -5.1417,-0.0444 -2.89889,-0.72504 -6.78469,-1.02031 -14.40036,-1.09407 -0.51424,-0.002 -1.821,0.0737 -2.90413,0.17489 -1.36752,0.12771 -1.87559,-0.0491 -1.66263,-0.57948 0.16865,-0.41993 0.006,-0.95762 -0.3679,-1.19495 -0.37102,-0.23734 -0.63795,-0.19978 -0.59333,0.0835 0.223,1.41366 -0.1985,1.92353 -1.33,1.60875 -0.6827,-0.18988 -1.2458,-0.0549 -1.25129,0.29974 -0.0162,1.04718 4.39587,5.80176 5.39842,5.81734 0.50644,0.008 1.69435,0.7977 2.63975,1.75517 0.94546,0.95747 2.42946,2.31288 3.29783,3.01203 1.4764,1.18862 5.82814,7.9951 5.81113,9.08907 -0.006,0.27195 0.59625,1.28732 1.33449,2.25641 1.52906,2.00742 1.42062,1.45496 2.12638,10.83499 0.47017,6.24848 0.40829,7.2692 -0.52427,8.6452 -0.58149,0.85813 -1.11455,2.71425 -1.18448,4.12467 -0.0699,1.41042 -0.18747,3.59525 -0.2612,4.85521 -0.0738,1.25995 -0.56129,2.70496 -1.08338,3.21108 -0.5221,0.50612 -0.9527,1.13876 -0.95687,1.40586 -0.006,0.26709 -1.0402,1.51083 -2.30245,2.7639 -1.43751,1.42706 -2.30432,2.87895 -2.31996,3.88593 -0.0137,0.88421 -0.34055,1.60761 -0.72621,1.60753 -0.38566,2.4e-4 -1.37244,0.68582 -2.19288,1.52421 -0.82032,0.83839 -1.88276,1.51831 -2.36091,1.51087 -0.47809,-0.007 -0.87392,0.28343 -0.87959,0.64642 -0.006,0.36294 -0.26095,0.49959 -0.56734,0.30359 -0.30632,-0.196 -1.08974,0.45672 -1.74078,1.45052 -1.12365,1.71505 -5.36544,4.94634 -6.47071,4.92916 -0.28394,-0.004 -1.75218,0.51574 -3.26268,1.15596 -3.24224,1.37407 -10.28253,1.82019 -16.45756,1.04278 z m 14.55118,-9.07147 c 2.03602,-0.9244 5.0456,-2.80772 6.68791,-4.18503 1.64231,-1.37738 3.83445,-2.98787 4.87146,-3.57886 1.97774,-1.12719 3.82323,-4.14105 3.85676,-6.29852 0.0106,-0.69914 0.30284,-1.44015 0.64892,-1.64663 0.34603,-0.20649 0.63758,-0.91977 0.64793,-1.585 0.0106,-0.6653 -0.26164,-1.21393 -0.60436,-1.21926 -1.16229,-0.0181 -0.60212,-1.82753 1.19345,-3.85551 3.90294,-4.40808 4.78009,-11.23475 2.26088,-17.59531 -0.2733,-0.6899 -0.99152,-2.61964 -1.59613,-4.28831 -1.95219,-5.38809 -9.46695,-12.7907 -16.78402,-16.53348 -3.05539,-1.56291 -17.0433,-2.37277 -18.57492,-1.07545 -0.89759,0.76027 -3.54819,1.76057 -6.88859,2.59974 -0.45197,0.11352 -0.65166,0.49158 -0.44375,0.84001 0.20804,0.34848 -0.19894,0.62465 -0.90426,0.61368 -0.70533,-0.011 -2.44299,1.07184 -3.8615,2.40626 -1.4185,1.33442 -3.12127,2.58912 -3.78396,2.78812 -0.6627,0.19908 -1.21258,0.85499 -1.22193,1.45765 -0.009,0.60261 -0.72833,1.74345 -1.59769,2.53508 -1.12414,1.02365 -1.59089,2.09399 -1.61595,3.70594 -0.0212,1.35826 -0.5133,2.76399 -1.22835,3.5079 -1.12053,1.16595 -2.05577,5.11927 -2.40279,10.15753 -0.19252,2.79521 3.20765,12.51625 4.38433,12.53454 0.26314,0.004 0.93126,0.9962 1.4847,2.2047 0.55337,1.20849 1.27391,2.20142 1.60111,2.20651 0.32726,0.005 1.75848,1.84019 3.18041,4.07807 3.43557,5.40666 8.44085,8.9242 14.5588,10.23135 1.10657,0.23642 2.14146,0.64689 2.2997,0.91208 0.15825,0.26519 2.50227,0.54534 5.20889,0.62257 4.17231,0.11909 5.48436,-0.11532 8.62295,-1.54037 z m -17.13758,-22.82353 c -1.18816,-1.07631 -3.14994,-3.64477 -4.35953,-5.70756 -2.04094,-3.48062 -2.13673,-3.87411 -1.33019,-5.46525 1.47054,-2.90113 5.87974,-7.30646 8.81048,-8.80287 2.10601,-1.07527 3.51011,-1.3537 5.74376,-1.13877 1.69441,0.16297 2.9515,0.59353 2.94508,1.00862 -0.006,0.39833 0.60891,1.01071 1.36689,1.36095 2.07715,0.9596 4.638,6.81479 4.49478,10.2771 -0.0921,2.23454 -0.48838,3.21298 -1.78267,4.40503 -3.74089,3.44533 -5.53534,4.61938 -7.23492,4.73346 -0.9838,0.066 -2.07185,0.39451 -2.41794,0.72996 -1.24138,1.20341 -4.06025,0.57024 -6.23574,-1.40067 z m -17.39992,-45.71931 c 0.21714,-0.33945 0.0979,-0.6218 -0.26512,-0.62744 -0.36292,-0.006 -0.66426,0.27016 -0.66962,0.6129 -0.006,0.34275 0.11393,0.6251 0.26513,0.62745 0.15114,0.002 0.45247,-0.27346 0.66961,-0.61291 z m -551.439314,67.4433 c -1.36612,-0.33352 -4.810845,-0.93404 -7.654994,-1.33454 -3.498019,-0.49251 -6.335674,-1.33883 -8.770389,-2.61578 -4.404372,-2.30986 -9.108478,-5.54721 -9.734277,-6.69892 -0.2553,-0.46996 -0.869918,-0.95355 -1.365815,-1.07464 -1.882695,-0.45985 -7.967956,-8.96939 -8.938808,-12.49988 -1.193799,-4.34146 -1.248058,-15.04887 -0.08313,-16.40892 0.448835,-0.52397 0.920045,-1.9102 1.047131,-3.08044 0.127148,-1.17024 0.984351,-3.42879 1.904845,-5.01902 0.920557,-1.59018 1.679468,-3.26365 1.686548,-3.71875 0.007,-0.4551 1.432427,-2.68929 3.167532,-4.9648 1.735043,-2.27557 3.325742,-4.64863 3.534797,-5.27356 0.611134,-1.82648 5.47959,-5.29599 8.195631,-5.84056 l 2.501072,-0.50141 -2.489212,-0.26147 c -1.369067,-0.14383 -2.952481,-0.69334 -3.518667,-1.22106 -0.813919,-0.75864 -1.888111,-0.88105 -5.129869,-0.58482 -2.255258,0.20616 -5.644733,0.1574 -7.532253,-0.10837 -2.896457,-0.40767 -3.554173,-0.7452 -4.215591,-2.16356 -0.937633,-2.01051 -0.824128,-4.10784 0.292875,-5.41191 0.676868,-0.79025 0.632873,-1.0915 -0.257798,-1.76426 -0.652437,-0.49284 -0.980357,-1.40761 -0.835428,-2.3303 0.36878,-2.34724 4.231808,-2.85677 11.03312,-1.45522 7.755559,1.59814 28.134315,1.78124 28.158073,0.25298 0.0037,-0.24185 -0.343476,-0.45918 -0.771638,-0.48298 -1.068876,-0.0596 -6.433903,-1.43535 -9.588378,-2.45902 -1.904671,-0.61808 -2.80461,-0.66267 -3.361279,-0.1665 -0.557367,0.49679 -0.651508,0.49021 -0.352974,-0.0248 0.57913,-0.9989 -1.189917,-2.32153 -2.632477,-1.96816 -0.698719,0.17115 -1.348058,-0.0677 -1.529285,-0.563 -0.173218,-0.4733 -0.73569,-0.7065 -1.249928,-0.51828 -0.514233,0.18823 -1.564268,-0.11333 -2.333451,-0.67013 -0.769182,-0.5568 -1.827812,-1.01899 -2.352465,-1.02715 -0.524645,-0.008 -1.764327,-0.90063 -2.754842,-1.98334 -1.709203,-1.86829 -1.751671,-2.05152 -0.833807,-3.59705 0.795359,-1.33923 1.366799,-1.59882 3.217104,-1.46122 2.075438,0.15437 2.243003,0.0411 2.161383,-1.48075 -0.10736,-1.99923 1.970155,-2.72857 5.012664,-1.75975 1.985786,0.63231 3.600256,0.20263 8.543591,-2.27376 0.978187,-0.48999 2.246557,-0.88541 2.818596,-0.87864 0.572069,0.009 1.826846,-0.38255 2.788406,-0.86526 0.961553,-0.48271 1.578153,-0.61162 1.370145,-0.28656 -0.559947,0.87535 0.455997,0.69511 1.854631,-0.32895 0.673116,-0.49286 1.915011,-0.88539 2.75965,-0.87226 0.844707,0.0131 2.465877,-0.6629 3.60258,-1.50229 1.136704,-0.8394 2.514902,-1.51921 3.062665,-1.51069 0.5477,0.009 1.163179,-0.40104 1.367684,-0.91016 0.204449,-0.50907 0.637934,-0.75534 0.963186,-0.54726 0.325252,0.20807 1.070982,-0.032 1.6571,-0.53367 0.58618,-0.50158 3.3042,-1.16997 6.04018,-1.48529 2.87123,-0.33085 5.25253,-0.93847 5.63222,-1.43708 0.36174,-0.47508 1.0264,-0.73327 1.47695,-0.57374 0.45055,0.15953 1.43894,-0.26891 2.19642,-0.95201 1.40547,-1.26761 4.80491,-1.20635 4.78482,0.0862 -0.005,0.33353 0.58608,1.10416 1.31395,1.71255 0.98698,0.82492 1.21616,1.50708 0.90136,2.68351 -0.4363,1.63055 -2.31545,2.33031 -6.10002,2.27148 -0.96516,-0.015 -1.92324,0.23601 -2.12914,0.55787 -0.2059,0.32179 -2.76051,1.28831 -5.67686,2.14772 -2.9164,0.85941 -5.45549,1.80166 -5.64242,2.0939 -0.18699,0.29224 -2.79789,1.25102 -5.802007,2.13069 -3.004173,0.87967 -5.559324,1.83627 -5.678077,2.1257 -0.118815,0.28949 -1.033906,0.51362 -2.033527,0.49809 -0.999689,-0.0155 -1.821343,0.21247 -1.825917,0.50673 -0.0044,0.29426 -2.117104,0.86212 -4.694511,1.26186 -2.577407,0.39975 -4.68897,0.89743 -4.692335,1.106 -0.0031,0.20857 5.67205,0.49932 12.61217,0.6461 6.940065,0.14654 13.628664,0.48731 14.863504,0.75683 1.37145,0.29932 4.16335,0.14314 7.17441,-0.40133 2.71108,-0.4903 6.19308,-0.99622 7.73779,-1.1243 1.5447,-0.12807 3.23166,-0.38509 3.74879,-0.57109 1.51854,-0.54623 6.10151,-0.93581 13.10702,-1.11419 18.77745,-0.47814 22.14464,-0.69227 27.14122,-1.72597 1.71966,-0.3558 4.1086,-0.66074 5.30875,-0.67761 4.89538,-0.0689 7.58234,2.83635 4.96751,5.37114 -1.36558,1.32383 -4.858,1.81108 -16.93079,2.36222 -4.50475,0.20566 -7.79994,0.54314 -7.80392,0.7992 -0.001,0.0673 -4.20969,0.14692 -9.35254,0.17693 -10.80771,0.063 -13.78152,0.26808 -18.09566,1.24794 -1.777,0.40359 -8.64569,0.70184 -15.90538,0.69059 -7.027754,-0.011 -14.320998,0.0154 -16.207209,0.0585 l -3.429475,0.0784 2.795181,0.62757 c 1.53735,0.34515 3.402451,0.94237 4.144703,1.32709 0.742253,0.38478 1.853659,0.51513 2.469829,0.28959 0.616101,-0.22547 0.919627,-0.21552 0.674393,0.0223 -0.910933,0.88311 2.742958,2.15863 5.178798,1.80785 2.00684,-0.28894 2.496,-0.14701 2.84775,0.82654 0.23361,0.64646 0.7852,1.55168 1.22572,2.01156 1.10074,1.14893 0.97911,2.6061 -0.3351,4.0137 -1.08798,1.16527 -0.95482,1.17994 8.55598,0.94282 5.31361,-0.1325 14.00981,-0.30636 19.32485,-0.38623 26.09694,-0.39247 32.1078,-0.53327 32.48957,-0.76108 1.03735,-0.61903 11.08927,-0.11533 13.23049,0.663 2.67966,0.97396 3.0315,1.95386 0.87354,2.43275 -1.29161,0.28665 -1.42702,0.62513 -1.28128,3.20282 0.23559,4.16707 -0.28703,4.37343 -12.52025,4.94402 -2.9606,0.1381 -6.36229,0.64253 -7.55921,1.1209 -1.32098,0.52798 -2.3976,0.64158 -2.73937,0.28896 -0.30968,-0.31947 -3.78322,-0.62224 -7.71901,-0.67283 -3.93579,-0.0506 -8.69816,-0.12461 -10.58309,-0.1642 -1.88492,-0.0399 -6.78189,-0.14096 -10.88216,-0.22464 -5.21533,-0.10663 -7.84306,-0.41526 -8.74664,-1.02757 -0.74568,-0.50533 -1.67462,-0.67323 -2.19788,-0.39726 -1.49967,0.79112 -16.758313,1.54718 -22.340273,1.10698 -3.948936,-0.31146 -5.10286,-0.22892 -4.762968,0.34071 0.246699,0.41343 1.118779,0.63436 1.937871,0.49089 0.819092,-0.14341 1.485546,-0.0193 1.480953,0.27603 -0.0044,0.29519 0.286979,0.54132 0.647856,0.54693 0.360939,0.006 1.677074,0.72731 2.92474,1.60376 1.24766,0.87647 2.707441,1.60039 3.243991,1.60873 2.25494,0.035 9.41779,4.5395 11.15137,7.0126 0.97434,1.39 1.76766,2.77582 1.76293,3.07956 -0.005,0.30373 0.42994,0.92788 0.96597,1.387 0.53602,0.45912 1.91771,2.78227 3.07037,5.16256 2.4998,5.16211 3.0858,11.32793 1.89064,19.89221 -0.79047,5.66466 -0.88723,5.85457 -6.9157,13.5751 -1.43,1.83133 -2.96911,4.02524 -3.42014,4.87529 -0.87047,1.64032 -5.26927,5.86087 -7.08226,6.79522 -0.59518,0.30671 -1.801663,0.54651 -2.681079,0.53284 -0.879354,-0.0137 -1.60218,0.18814 -1.606225,0.44844 -0.02705,1.74169 -6.70565,2.85353 -10.936386,1.82062 z m 6.967893,-7.16494 c 4.691518,-0.82453 7.686021,-3.01071 11.314061,-8.25987 1.93428,-2.79856 4.43279,-6.13044 5.55232,-7.40424 1.92621,-2.19157 2.06506,-2.67492 2.58584,-8.99794 0.72394,-8.7902 0.18302,-10.7706 -5.17149,-18.92564 -1.83024,-2.78763 -4.07168,-5.04985 -5.01809,-5.06456 -0.50695,-0.008 -1.35944,-0.43433 -1.89443,-0.94766 -8.380871,-8.04133 -10.871933,-8.78559 -24.112141,-7.20361 -1.813234,0.21659 -3.44905,0.63197 -3.635207,0.92297 -0.186157,0.29094 -0.82578,0.52147 -1.421277,0.51221 -1.043622,-0.0162 -1.893777,0.50176 -5.768858,3.51479 -0.986733,0.76724 -2.15385,2.43206 -2.593549,3.6996 -0.439697,1.26754 -1.741485,3.97295 -2.892854,6.01201 -2.883893,5.10728 -4.181506,9.78562 -4.506932,16.2485 -0.21669,4.30414 -0.0167,6.23948 0.92384,8.94023 2.049613,5.88539 2.971796,6.78864 13.112447,12.84382 3.650614,2.17984 8.096195,3.2745 16.866783,4.15303 1.13542,0.11376 2.238506,0.38641 2.451325,0.60588 0.212757,0.21954 0.824763,0.23734 1.360024,0.0398 0.535198,-0.19775 1.816893,-0.50781 2.848188,-0.68912 z M 73.005616,768.19516 c -2.932936,-2.07905 -4.328423,-7.56015 -3.206721,-12.59478 1.61862,-7.26449 3.933691,-9.48211 10.425681,-9.98669 4.815974,-0.37429 7.521501,0.68758 11.017763,4.32427 2.134754,2.22054 2.244065,2.53864 2.008784,5.84486 -0.364523,5.12095 -3.391931,10.34611 -5.971226,10.30602 -0.656824,-0.0102 -1.726442,0.55141 -2.376859,1.24802 -0.724646,0.77611 -1.650512,1.13646 -2.39087,0.93053 -0.664577,-0.18492 -2.186209,0.0547 -3.381366,0.53236 -2.838285,1.13445 -3.806681,1.03886 -6.125186,-0.60459 z m 31.172444,-55.69001 c 0.002,-0.13248 -0.82081,-0.37496 -1.82867,-0.53898 -1.00778,-0.16396 -1.69402,-0.0662 -1.52489,0.2172 0.30101,0.50446 3.34618,0.79664 3.35356,0.32178 z m 248.06483,71.21405 c -0.93055,-0.78638 -1.68252,-2.03368 -1.67105,-2.77169 0.0115,-0.73808 -0.27495,-1.53123 -0.6365,-1.76255 -1.07735,-0.68918 1.33117,-2.75912 3.17713,-2.73042 2.20888,0.0343 3.52941,1.21517 3.88899,3.47749 0.32653,2.05467 -1.0998,5.3053 -2.30408,5.25117 -0.41945,-0.019 -1.52395,-0.67761 -2.45449,-1.464 z m -0.61569,-18.56666 c -1.09203,-0.33811 -2.17352,-0.92974 -2.40328,-1.31479 -0.22975,-0.38497 -0.36249,-9.78089 -0.29499,-20.87973 0.0675,-11.0989 -0.0211,-20.42077 -0.19682,-20.71521 -0.17575,-0.29451 -1.75691,-0.72842 -3.51375,-0.96424 -2.37201,-0.31836 -3.43291,-0.19735 -4.12159,0.4703 -0.82347,0.79827 -7.28878,1.31921 -9.2508,0.74542 -0.84884,-0.24824 -11.33,-0.16491 -14.02641,0.11157 -1.20181,0.12318 -9.33862,0.28373 -18.08181,0.35681 -8.74319,0.073 -16.87319,0.32057 -18.06661,0.5501 -1.22794,0.23609 -3.79571,0.0528 -5.91497,-0.42219 -2.05981,-0.46168 -6.96978,-0.90153 -10.9111,-0.97738 -3.94131,-0.0756 -7.58617,-0.1759 -8.09969,-0.2224 -2.64402,-0.23895 -17.46346,0.67702 -17.46973,1.07977 -0.004,0.25775 -0.4451,0.62887 -0.98014,0.82476 -0.62727,0.22954 -0.81335,0.10665 -0.52383,-0.34592 0.32824,-0.51313 -0.45864,-0.58533 -2.92424,-0.26849 -9.45669,1.21532 -23.77307,1.13799 -25.26101,-0.13651 -0.60048,-0.51435 -0.7601,-1.3537 -0.48171,-2.53331 0.25677,-1.08799 0.15844,-1.7682 -0.25634,-1.77464 -1.24072,-0.0193 -0.65448,-2.20077 0.75276,-2.80128 0.76528,-0.3265 1.55501,-1.25543 1.75501,-2.06432 0.35965,-1.4546 0.46206,-1.47077 9.39317,-1.48334 4.96628,-0.007 9.735,-0.28031 10.59715,-0.60749 4.2905,-1.62811 27.35843,-2.25441 64.54078,-1.75219 11.65362,0.15748 21.49572,0.0448 21.8713,-0.25022 0.74593,-0.58573 19.86091,-0.005 24.86979,0.75531 1.83478,0.2786 3.83442,0.20391 4.87838,-0.18216 l 1.76911,-0.65428 -0.0107,-22.41947 c -0.006,-12.33065 -0.25628,-25.16644 -0.55645,-28.52388 -0.30016,-3.35744 -0.4862,-8.34745 -0.41341,-11.08892 0.17267,-6.50034 -1.22011,-32.35615 -1.91152,-35.48599 -0.88737,-4.017 0.98036,-6.86452 4.22501,-6.44134 l 1.74829,0.22808 0.0893,5.8892 c 0.0491,3.23903 0.33974,6.2007 0.64592,6.58144 0.91687,1.14047 2.12287,8.66679 1.70634,10.64945 -0.21312,1.01451 -0.24792,2.67642 -0.0774,3.69315 0.17057,1.01667 0.0884,4.38131 -0.18249,7.47699 -0.2709,3.09568 -0.24803,5.93868 0.0508,6.31788 0.29892,0.37914 0.61124,5.99387 0.69409,12.47718 0.0829,6.48325 0.16363,12.48919 0.17947,13.3465 0.016,0.85731 -0.0145,2.5398 -0.0675,3.73887 -0.0529,1.19906 -0.13616,9.15962 -0.18929,17.69009 -0.0894,14.87313 -0.0423,15.52947 1.14606,15.98477 0.68159,0.2611 7.96935,0.58713 16.19503,0.72448 8.22568,0.13722 17.4588,0.61368 20.51799,1.05841 3.38353,0.49185 8.14162,0.68119 12.14721,0.48341 3.62178,-0.17887 8.54864,-0.33708 10.94865,-0.35158 2.40001,-0.0144 4.64663,-0.18625 4.99248,-0.38158 0.34587,-0.1954 1.18803,-0.23921 1.87148,-0.0974 2.67258,0.55479 13.18999,0.93446 15.23142,0.54988 1.1861,-0.22342 3.6225,-0.22182 5.41422,0.004 1.79172,0.22544 3.8548,0.19948 4.58472,-0.0577 0.72992,-0.25718 3.06588,-0.5142 5.19103,-0.57111 l 3.86395,-0.10348 1.50764,3.25802 c 0.82921,1.79191 2.07258,3.91494 2.76302,4.71785 1.31315,1.52704 1.31689,4.26571 0.006,4.24533 -0.40967,-0.006 -1.80976,0.53809 -3.11135,1.20986 -1.97909,1.0214 -2.59105,1.09292 -3.73748,0.43669 -1.38954,-0.79539 -3.61603,-0.88422 -23.49639,-0.93784 -5.65639,-0.0153 -20.37721,-0.34358 -32.71292,-0.73007 -20.03862,-0.62741 -33.76018,-0.87637 -41.12747,-0.74612 l -2.49396,0.0441 -0.11682,6.23138 c -0.0639,3.42726 -0.29847,6.51359 -0.52088,6.85857 -0.22234,0.34492 -0.17436,1.97359 0.10668,3.61928 0.28102,1.64569 0.60308,7.67671 0.71572,13.40233 0.11257,5.72563 0.24716,10.96117 0.29915,11.63448 0.11108,1.43948 -1.01756,1.69164 -3.76464,0.84117 z M 3.8393853,739.07979 c -0.769725,-0.58655 -1.0669688,-1.89876 -1.1322287,-4.99836 -0.06033,-2.86073 -0.3372996,-4.20866 -0.8674309,-4.22089 -0.4283307,-0.0129 -0.7679675,-0.71897 -0.7546488,-1.57583 0.013338,-0.85685 -0.2889234,-1.56279 -0.67161392,-1.56873 -0.43571609,-0.007 -0.52428529,-0.53243 -0.23681401,-1.40615 0.2524699,-0.76743 0.53332859,-2.61552 0.62420379,-4.10689 0.10562116,-1.73417 0.55538514,-2.98766 1.24771574,-3.47755 0.7249823,-0.51307 1.0959309,-1.62834 1.1231106,-3.3767 0.033281,-2.1404 0.4397796,-3.0091 2.2565856,-4.82257 1.2188036,-1.21654 2.2225629,-2.63407 2.230584,-3.15005 0.00804,-0.51599 1.4640126,-2.30671 3.2356213,-3.97946 3.139049,-2.96389 3.299435,-3.03252 6.304218,-2.69659 3.598655,0.40232 6.44615,2.73667 6.819841,5.59086 0.402323,3.07311 -0.516245,3.84203 -4.238059,3.54774 -2.569716,-0.20326 -3.590701,-0.004 -4.628022,0.90599 -0.731963,0.64166 -1.335058,1.4337 -1.340131,1.75998 -0.01465,0.94149 -3.847048,8.41516 -4.5216286,8.81768 -0.6845213,0.40855 -0.2231587,7.14189 0.5493647,8.01714 0.8399649,0.95171 5.7808809,-2.2032 7.9758149,-5.09282 1.158206,-1.52471 2.332491,-3.04917 2.609585,-3.38769 1.525184,-1.86345 5.782451,-12.65749 6.413417,-16.26075 0.493684,-2.81964 -0.140734,-4.99273 -1.600122,-5.48104 -0.795584,-0.26618 -1.230247,-0.96239 -1.214958,-1.94581 0.02867,-1.84296 2.263304,-2.86076 4.987709,-2.27169 2.349125,0.50793 2.789889,2.36336 2.42187,10.19507 -0.243383,5.17899 -0.535404,6.40158 -2.460599,10.29981 -1.201433,2.43284 -2.192659,4.95247 -2.202712,5.59919 -0.01003,0.64667 -1.49371,4.00486 -3.29706,7.46255 -3.606246,6.9147 -5.190177,8.35893 -11.384486,10.38087 -1.857697,0.60634 -3.6474609,1.32214 -3.9773252,1.59071 -0.8976521,0.73072 -3.090642,0.55209 -4.2718015,-0.34802 z M 723.97251,734.76333 c -3.24068,-1.9462 -4.29459,-4.2165 -4.28474,-9.2299 0.009,-4.66284 2.46237,-12.53045 3.90013,-12.5081 0.43154,0.007 0.79607,-0.61874 0.81022,-1.38987 0.0118,-0.77118 0.41078,-2.09732 0.88158,-2.94706 0.4708,-0.84975 2.23707,-4.04797 3.92513,-7.10716 1.68805,-3.05919 3.36763,-5.92428 3.73254,-6.36684 0.88894,-1.07848 4.23052,-0.63091 5.56738,0.74571 1.70644,1.75711 1.24512,3.43695 -1.81482,6.60802 -1.56796,1.62486 -2.85521,3.23271 -2.86051,3.57296 -0.0187,1.2188 -2.19213,4.85138 -3.63251,6.07183 -0.80723,0.68407 -1.47104,1.45682 -1.4751,1.71731 -0.006,0.26042 -0.57762,1.06687 -1.27453,1.79199 -0.69691,0.72511 -1.27285,1.68617 -1.27983,2.13567 -0.007,0.44949 -0.27117,0.8132 -0.5871,0.80829 -0.31592,-0.005 -0.62355,2.21767 -0.6837,4.93915 -0.097,4.39482 0.0274,4.99384 1.11499,5.35768 1.28849,0.43111 4.99555,-1.6619 5.01375,-2.83071 0.006,-0.3501 1.58547,-2.34005 3.51123,-4.42204 1.9257,-2.08199 3.68611,-4.48376 3.91198,-5.33732 0.22598,-0.85355 1.11554,-2.90851 1.97693,-4.56655 1.01333,-1.95058 1.7735,-4.79437 2.15374,-8.05683 0.577,-4.9511 0.55525,-5.08875 -1.20479,-7.62173 -1.52689,-2.19744 -1.6946,-2.82523 -1.13219,-4.23785 0.83079,-2.08692 2.30669,-2.10194 6.18009,-0.0628 3.86935,2.03694 4.18969,2.51509 4.81705,7.19076 0.42387,3.1584 0.36061,4.02134 -0.31287,4.26786 -0.46425,0.16994 -0.68862,0.56942 -0.49865,0.88778 0.18996,0.31835 0.0125,0.49654 -0.39439,0.39603 -0.40698,-0.10051 -1.42081,0.97422 -2.25303,2.38838 l -1.51317,2.5711 2.14913,1.31346 c 1.4683,0.89741 2.14203,1.76981 2.12669,2.75391 -0.0212,1.35515 -1.93878,3.55769 -3.08212,3.53992 -0.2857,-0.004 -1.04487,0.55465 -1.687,1.24241 -0.64213,0.68776 -1.53356,1.10344 -1.98092,0.9237 -0.44736,-0.17968 -0.81876,0.0178 -0.8253,0.43907 -0.006,0.4212 -0.72471,1.51095 -1.59594,2.42172 -0.87123,0.91078 -1.58983,2.02644 -1.59688,2.47936 -0.007,0.45293 -0.58111,1.29495 -1.27571,1.87126 -0.69461,0.57625 -1.26949,1.47112 -1.27753,1.9886 -0.008,0.51748 -0.27616,0.9368 -0.59582,0.93182 -0.3196,-0.005 -0.75101,0.4792 -0.95861,1.07591 -0.60816,1.74825 -4.91297,4.83781 -7.28454,5.22817 -1.61395,0.26562 -2.76982,0.01 -4.41026,-0.97506 z M 191.91517,705.02736 c -1.25905,-1.29882 -1.22323,-5.6355 0.0506,-6.10164 0.51718,-0.1893 0.94601,-0.70903 0.95294,-1.15497 0.007,-0.44594 1.30227,-2.46817 2.87847,-4.49389 1.5762,-2.02572 3.49544,-4.93552 4.26492,-6.46627 0.76954,-1.53076 1.58767,-2.9205 1.81811,-3.08834 0.53173,-0.38729 1.83266,-2.70077 5.12512,-9.11428 1.44048,-2.80592 2.88979,-5.09746 3.22069,-5.09232 0.66032,0.0103 3.79793,-6.20544 3.81907,-7.5657 0.007,-0.46649 1.14465,-1.91916 2.52751,-3.22814 1.95279,-1.84845 2.43826,-2.70439 2.17363,-3.8326 -0.20063,-0.85532 -0.0609,-1.44836 0.3395,-1.44213 0.9082,0.0141 4.19763,-6.18751 4.0169,-7.57322 -0.0784,-0.60116 0.18527,-1.08793 0.58591,-1.08169 1.59157,0.0247 10.23164,-12.40432 9.47861,-13.63531 -0.29391,-0.48047 -0.53276,-1.25859 -0.53068,-1.72904 0.003,-0.68978 0.18245,-0.70239 0.92645,-0.0651 1.35937,1.16437 2.2308,0.20878 5.60418,-6.14544 1.61577,-3.04362 3.78784,-6.29891 4.82675,-7.23408 1.0389,-0.93516 2.80345,-3.36902 3.92123,-5.4086 2.08968,-3.81315 5.9692,-9.35735 9.0479,-12.93048 0.9601,-1.11428 1.74982,-2.29585 1.75495,-2.62575 0.005,-0.32984 0.72268,-1.40364 1.59465,-2.38621 0.8719,-0.98251 1.59083,-2.12105 1.59763,-2.53002 0.007,-0.40898 0.5371,-1.10197 1.17851,-1.53998 0.64141,-0.43801 1.67695,-1.77015 2.30119,-2.96034 0.62431,-1.19018 1.8169,-3.04628 2.65021,-4.12463 0.83337,-1.07835 1.52039,-2.29287 1.5267,-2.69892 0.006,-0.406 0.797,-1.64994 1.7571,-2.76422 2.97136,-3.44852 7.15772,-9.35184 7.16951,-10.10993 0.006,-0.39677 1.23619,-2.02265 2.73338,-3.61309 1.4972,-1.5905 3.03899,-3.58808 3.42627,-4.43912 0.38729,-0.85104 2.57685,-3.66439 4.86577,-6.25186 2.28884,-2.58747 4.61242,-5.63678 5.16339,-6.77625 1.69217,-3.49931 4.84362,-8.10296 7.59802,-11.09925 6.54229,-7.11678 13.46081,-16.50225 10.55613,-14.32029 -0.49856,0.37453 -2.63105,1.93783 -4.739,3.47395 -2.10789,1.53613 -4.21939,3.24467 -4.69222,3.79669 -0.47282,0.55195 -1.99614,1.5613 -3.38514,2.24293 -1.38901,0.68164 -3.06733,1.90656 -3.72956,2.72209 -0.6623,0.81548 -2.51884,2.12937 -4.12576,2.9197 -1.60686,0.79032 -3.54235,2.00612 -4.30102,2.70192 -0.75868,0.69567 -3.02478,2.12063 -5.03578,3.16647 -2.01101,1.04589 -4.36471,2.36035 -5.23049,2.92109 -0.86578,0.56068 -3.18341,1.77977 -5.15034,2.70898 -4.06284,1.91937 -6.03071,1.76636 -8.74215,-0.67969 -1.66693,-1.5038 -1.67224,-1.53561 -0.57006,-3.42565 0.88085,-1.51045 1.41004,-1.83027 2.54096,-1.53569 0.87229,0.22724 2.09035,-0.0717 3.12853,-0.76791 2.64042,-1.77057 12.7642,-7.08058 15.20777,-7.97657 1.20676,-0.4425 2.67171,-1.19763 3.25544,-1.67804 0.58379,-0.48042 1.90159,-1.32535 2.92849,-1.8776 2.65648,-1.42862 11.10073,-8.06553 15.56605,-12.23444 3.585,-3.34703 9.51363,-7.42007 10.77193,-7.40052 0.31595,0.005 0.916,-0.51944 1.33345,-1.16532 0.41744,-0.64581 2.28144,-1.84278 4.14223,-2.65995 2.25748,-0.99139 3.84338,-2.20495 4.76593,-3.64706 1.10418,-1.72601 1.90254,-2.23619 3.96373,-2.53301 1.96874,-0.28349 2.85302,-0.11778 3.72725,0.69852 1.56163,1.45798 1.41984,2.49522 -0.88255,6.45528 -1.08645,1.86865 -2.70354,5.34969 -3.59358,7.73563 -0.89004,2.38594 -1.84882,4.61499 -2.13071,4.95343 -0.737,0.885 -3.90014,9.80913 -3.91956,11.05833 -0.009,0.57868 -0.28522,1.53498 -0.61391,2.1252 -0.79447,1.42678 -4.00774,11.0781 -3.90544,11.73031 0.20462,1.3043 -0.20929,2.54507 -1.51435,4.5391 -0.77736,1.1878 -1.45578,3.18852 -1.50755,4.44601 -0.052,1.25749 -0.49625,2.75577 -0.98767,3.3295 -1.54032,1.79839 -2.53917,5.4016 -2.61136,9.42027 -0.055,3.05322 -0.30374,3.99337 -1.1759,4.44288 -1.51307,0.77975 -4.51362,0.0749 -4.49604,-1.05605 0.008,-0.50626 -0.52496,-1.07048 -1.18401,-1.25382 -1.71054,-0.47582 -1.99257,-1.79628 -0.94773,-4.43663 0.50069,-1.26534 1.68399,-4.25209 2.62943,-6.63718 0.9455,-2.38508 2.16876,-6.25763 2.71837,-8.60573 0.54962,-2.34811 2.18104,-6.6704 3.62539,-9.60509 2.63072,-5.34546 3.98729,-9.77455 3.15657,-10.30595 -0.46475,-0.29731 -5.35133,5.40115 -8.70248,10.14843 -1.07993,1.52985 -2.8561,3.44382 -3.94697,4.25326 -1.09092,0.80943 -2.51909,2.6072 -3.17377,3.99506 -0.65462,1.38787 -1.79551,3.13338 -2.53531,3.8789 -0.73976,0.74552 -1.35849,1.99813 -1.375,2.78356 -0.0185,0.78541 -0.84982,2.39704 -1.85177,3.58136 -7.20799,8.5198 -10.32419,12.46408 -10.81146,13.68451 -0.3097,0.77552 -1.88454,3.11093 -3.49972,5.18977 -1.61517,2.0789 -2.93912,3.93651 -2.94209,4.12801 -0.003,0.1915 -1.86822,2.89513 -4.14498,6.00806 -2.27676,3.11293 -4.1452,6.02271 -4.15209,6.46616 -0.007,0.44345 -0.72655,1.62853 -1.59924,2.63353 -0.87269,1.005 -1.59125,2.12004 -1.59682,2.47781 -0.006,0.35782 -0.86571,1.55855 -1.91144,2.66832 -1.04573,1.10984 -1.90655,2.35443 -1.91295,2.76585 -0.006,0.41148 -0.72564,1.57033 -1.59834,2.57533 -0.87268,1.005 -1.5912,2.11699 -1.5967,2.47107 -0.006,0.35408 -0.65035,1.14503 -1.43298,1.75768 -0.78256,0.61265 -1.90427,1.83848 -2.49267,2.72399 -0.58834,0.8855 -1.46301,1.99388 -1.94365,2.46306 -0.48065,0.46918 -2.25994,3.4782 -3.95389,6.68678 -4.43581,8.40164 -4.20931,8.05024 -8.31558,12.90346 -1.24381,1.47008 -2.26763,3.06707 -2.27512,3.54871 -0.007,0.48171 -0.29404,0.87145 -0.63678,0.86612 -0.34274,-0.006 -0.62997,0.42752 -0.63827,0.96183 -0.008,0.53437 -0.27043,0.80817 -0.58254,0.60853 -0.31211,-0.19964 -0.89344,0.57546 -1.29181,1.7224 -0.39842,1.14695 -1.67654,3.16341 -2.84024,4.4809 -2.08918,2.36531 -4.8471,6.81875 -4.86318,7.85302 -0.004,0.29289 -0.5849,0.98928 -1.28964,1.54748 -0.70669,0.55978 -1.47267,2.13023 -1.70791,3.50162 -0.23457,1.36766 -1.09707,3.26909 -1.9167,4.22542 -0.81957,0.95633 -1.49557,2.08799 -1.50221,2.51474 -0.007,0.42675 -0.86267,1.86453 -1.9023,3.19505 -1.03962,1.33045 -1.90368,2.78344 -1.92014,3.22874 -0.0462,1.24529 -1.92502,4.47953 -3.44214,5.92493 -1.81133,1.72561 -2.95913,3.77189 -2.98317,5.31834 -0.0108,0.69402 -1.13169,2.85423 -2.49086,4.80049 -1.35917,1.94625 -2.86199,4.59231 -3.33959,5.88021 -0.4776,1.2879 -2.23293,3.71399 -3.90077,5.39135 -1.66783,1.67735 -3.0368,3.33112 -3.04214,3.67498 -0.006,0.34386 -0.5793,1.17736 -1.27544,1.85219 -1.51379,1.46744 -4.53991,1.55784 -5.87975,0.17575 z m 274.1113,-2.08332 c -2.61879,-2.43544 -2.61265,-3.85732 0.0406,-9.34916 1.35616,-2.80723 2.75456,-5.09956 3.10746,-5.09407 0.3529,0.006 0.65091,-0.58428 0.66221,-1.31065 0.0113,-0.7263 1.02713,-2.92105 2.25743,-4.87716 1.2303,-1.95611 2.24304,-3.95132 2.25055,-4.43384 0.007,-0.48246 0.60578,-1.97922 1.32951,-3.32606 0.86173,-1.60368 1.20484,-3.08141 0.99425,-4.28202 -0.25073,-1.42949 0.055,-2.21423 1.38754,-3.56252 0.93997,-0.95109 1.98902,-1.7249 2.3312,-1.71958 0.34225,0.006 1.27481,-0.58455 2.07235,-1.31085 l 1.45011,-1.32046 7.82283,1.16723 c 4.30259,0.64202 8.13321,0.98206 8.51246,0.75577 0.41411,-0.24713 0.50749,-0.12687 0.23374,0.30102 -0.26186,0.40938 -0.0835,0.71832 0.41911,0.72614 3.42182,0.0532 3.89955,7.65028 0.67743,10.77369 -0.95106,0.92201 -1.85603,1.67437 -2.01102,1.67196 -0.98647,-0.0153 -6.79848,4.71999 -7.58032,6.176 -0.90027,1.67651 -0.87703,1.78571 0.45676,2.14515 1.67191,0.45053 3.42865,4.31338 3.11762,6.8553 -0.20321,1.66061 -5.24857,7.11918 -6.56134,7.09877 -0.31046,-0.005 -1.44781,0.71139 -2.52749,1.59156 -1.66928,1.36087 -2.71098,1.63029 -6.96111,1.80058 -2.91003,0.11658 -5.90895,-0.11617 -7.17821,-0.55701 -1.82284,-0.63321 -2.36301,-0.59692 -3.29613,0.22158 -1.39582,1.22425 -1.54668,1.21711 -3.0075,-0.14137 z m 17.64031,-8.22043 c 2.39947,-0.35676 3.03679,-1.08499 2.82552,-3.22856 -0.17353,-1.76059 -0.23851,-1.79021 -3.61565,-1.64985 -1.89144,0.0786 -4.25334,-0.18119 -5.2486,-0.57745 -1.49662,-0.59578 -1.90885,-0.54933 -2.38345,0.26856 -0.31563,0.544 -1.22103,1.22361 -2.01212,1.51038 -1.86557,0.67629 -1.54936,3.51113 0.44413,3.98119 1.38424,0.32632 6.87317,0.15921 9.99017,-0.30427 z m -3.78262,-12.31681 c 0.006,-0.35776 0.35976,-0.58781 0.7871,-0.51117 0.42734,0.0767 1.57147,-0.17372 2.5425,-0.55643 0.97103,-0.38271 2.09783,-0.69262 2.50398,-0.68874 0.40612,0.006 2.59012,-1.82315 4.85327,-4.06021 3.98699,-3.94097 4.06939,-4.08499 2.65395,-4.63408 -2.81365,-1.09147 -8.80841,-0.43095 -8.83023,0.97293 -0.008,0.50707 -0.29206,0.74432 -0.63151,0.52717 -0.33945,-0.21714 -0.62331,-10e-4 -0.63079,0.48012 -0.007,0.48122 -0.56623,1.35963 -1.24164,1.95207 -0.67547,0.59244 -1.41834,1.88338 -1.65089,2.86873 -0.23254,0.9854 -0.68414,1.94758 -1.0035,2.13815 -0.78021,0.46558 -0.7689,2.14005 0.0145,2.15223 0.34274,0.006 0.62771,-0.28301 0.63327,-0.64077 z m 8.3339,-6.82432 c -0.82489,-0.85094 -0.9711,-2.38371 -0.22629,-2.37213 0.73983,0.0115 2.54227,2.37759 2.12174,2.78525 -0.5578,0.54072 -1.08148,0.42655 -1.89545,-0.41312 z M 351.87387,586.92677 c -1.52738,-0.64164 -1.83752,-2.93292 -0.67919,-5.01861 0.93631,-1.68605 3.81681,-1.49816 5.50817,0.35926 1.15407,1.26739 1.23255,1.63181 0.50477,2.34529 -0.4739,0.46462 -1.05505,1.33259 -1.29152,1.92886 -0.46606,1.17531 -1.84808,1.30704 -4.04223,0.3852 z m 0.0838,-15.41444 c 0.004,-0.26148 -0.61926,-0.76197 -1.38517,-1.11234 -1.38508,-0.63351 -1.39175,-0.71757 -1.24295,-15.59426 0.2039,-20.38181 -0.3664,-50.92584 -1.08357,-58.03229 -0.23991,-2.37783 -0.27446,-9.65013 -0.0768,-16.16075 0.97342,-32.05165 1.11097,-40.92034 0.71203,-45.8029 -0.23937,-2.91774 -0.3938,-6.07569 -0.34318,-7.01767 0.0508,-0.94198 -0.17334,-1.71683 -0.49758,-1.72187 -0.34735,-0.005 -0.376,-0.71244 -0.0697,-1.72094 0.55945,-1.84213 0.0227,-4.10602 -1.15094,-4.85703 -0.3995,-0.25554 -0.47686,-0.63603 -0.17198,-0.84559 0.30488,-0.2095 1.05712,-1.1445 1.6715,-2.07772 1.09689,-1.66597 3.08507,-2.16975 4.59977,-1.1656 1.98174,1.31379 2.71623,9.78427 2.28344,26.33303 -0.19307,7.38327 -0.29956,14.68711 -0.23673,16.23079 0.063,1.5437 0.0545,4.20826 -0.0188,5.92125 -0.0734,1.71299 -0.33153,8.11888 -0.57384,14.23535 -0.24237,6.11642 -0.63183,11.93061 -0.86537,12.92043 -0.25244,1.06961 -0.16629,1.80361 0.2124,1.80949 0.38506,0.006 0.6937,3.03133 0.78025,7.64779 0.36365,19.39456 1.13724,37.27846 1.67695,38.76736 0.42406,1.16977 0.31756,2.65148 -0.37387,5.20089 -0.86634,3.19433 -0.86694,3.92316 -0.006,7.00827 0.52861,1.89376 0.94118,4.28437 0.91685,5.31246 -0.2646,11.1788 -0.47624,12.82787 -1.79961,14.02289 -1.33166,1.20275 -2.96934,1.59005 -2.95549,0.69899 z M 347.62214,551.394 c -0.19221,-0.32213 -0.0618,-0.75742 0.28992,-0.96725 0.35169,-0.20989 0.63261,0.0553 0.62431,0.58995 -0.017,1.0946 -0.39349,1.24994 -0.91423,0.3773 z m 3.47012,-155.18827 c -0.41994,-0.69624 -1.25202,-1.27346 -1.8492,-1.28275 -0.956,-0.0149 -1.07143,-0.70523 -0.96641,-5.78072 0.15773,-7.62025 1.42928,-9.88476 4.29078,-7.64108 1.67508,1.31338 2.73297,4.68173 3.09553,9.8563 0.29754,4.24762 0.2128,4.78722 -0.79498,5.05934 -0.62044,0.1675 -1.55201,0.47341 -2.0702,0.67971 -0.57238,0.2279 -1.24169,-0.12165 -1.70552,-0.8908 z m -1.72952,-26.88865 c -1.39971,-1.07897 -1.57093,-1.52494 -1.0694,-2.78478 0.34509,-0.86679 0.55343,-8.54721 0.4935,-18.19251 -0.057,-9.18082 -0.0752,-17.53345 -0.0403,-18.56139 0.0346,-1.02794 0.0562,-2.85081 0.0467,-4.05084 -0.009,-1.20003 0.0473,-3.44311 0.12798,-4.98458 0.31326,-6.0733 0.23242,-7.01633 -0.69154,-8.06977 -1.20827,-1.37755 -1.17966,-5.27846 0.0524,-7.09605 0.82812,-1.22198 0.82979,-1.60168 0.0141,-3.23499 -0.50808,-1.0178 -0.77815,-2.37429 -0.60009,-3.01435 0.17807,-0.64012 0.019,-1.86162 -0.35392,-2.71457 -0.53533,-1.22504 -0.49309,-1.66083 0.20125,-2.07521 0.74385,-0.44389 0.75301,-0.76875 0.0591,-2.11481 -0.64282,-1.24735 -0.6545,-1.78302 -0.0543,-2.48378 0.42089,-0.49136 0.7585,-2.38905 0.75021,-4.217 -0.008,-1.82795 0.25698,-5.49311 0.58949,-8.14485 0.33256,-2.65173 0.38099,-4.8248 0.10748,-4.82905 -0.57282,-0.009 -0.64423,-2.1154 -0.0899,-2.65275 0.75373,-0.73065 0.68397,-14.10181 -0.0785,-15.0502 -0.59499,-0.73997 -0.52883,-1.24744 0.32744,-2.51088 0.86015,-1.26936 0.99142,-2.29591 0.66155,-5.17386 -0.46819,-4.08515 -0.17049,-20.40002 0.40364,-22.11576 0.20937,-0.62574 -0.18567,-2.12616 -0.88173,-3.34897 -1.5977,-2.80665 -1.57552,-3.15118 0.27847,-4.32524 2.28131,-1.44455 6.41178,-0.16 7.01198,2.18067 0.23955,0.93421 0.21615,10.81122 -0.052,21.94888 -0.53496,22.21949 -0.79486,27.28578 -1.75721,34.25524 -0.84309,6.10583 -0.78262,14.24452 0.16893,22.75378 0.74951,6.70217 0.81027,13.23887 0.23463,25.24808 -0.156,3.25442 -0.39209,12.22655 -0.52469,19.93806 -0.13234,7.71152 -0.26862,15.43557 -0.30173,17.16458 -0.0381,1.9704 0.36244,3.88642 1.07339,5.13383 1.10305,1.93541 1.10203,2.02465 -0.0361,3.24387 -1.47908,1.58418 -3.92211,1.53554 -6.07082,-0.12055 z"
       id="path3684"
       inkscape:connector-curvature="0"
       sodipodi:nodetypes="cccccscssscccscsccsscscscscscccsccscsssccsccsssscsscccssscscsscccsscsccsscsscsccssscscsccssssccccscscscssssscsscscccscccccscccsscscccscssscscccssccsccssscccssccccsscssccsssccccsccscccccsscscscssssscscccscccccssscsccccsccccscccsccccccccsscsscscscssssccssscsccccccsssssscscccsccscscssssssssccscccsccccscssssscccccccccsccccccccccccsscsscccsssssccsccsccssscscccscsccscscscsssccccscscccsssssccsccccccssccccssccscccccccsssscsssssccsscccscscssccssssssscccccccsscsscscscsssscsccsccscscscsccccscccsssccscscsccsscsccscccscscscccsccccccsscssscsccscccscccccccsscccscssssccsccccccssscssccccsscsccccscssssccsccssscsscscsccssccssscsscccccssccsssssscsccscscssscsccssscsccscccscccccsscccscssscssccsscscccccccscccsccsccccsccssssscsssccscssssscsscccscccssssssccccssssssssccsccscscccscscccsssccscsccscsssssccssccssssccscccccscsccsccccssccccsscssscccccsccsssccccccscccscccccccccsscccccccsssscccccc" />
  </g>
</svg>
